<?xml version="1.0" encoding="UTF-8"?>
<!-- Generator: https://ezgif.com/png-to-svg -->
<svg version="1.1" xmlns="http://www.w3.org/2000/svg" width="367" height="367">
<path d="M0 0 C121.11 0 242.22 0 367 0 C367 121.11 367 242.22 367 367 C245.89 367 124.78 367 0 367 C0 245.89 0 124.78 0 0 Z " fill="#000000" transform="translate(0,0)"/>
<path d="M0 0 C0 1.32 0 2.64 0 4 C1.65 3.72 3.29 3.42 4.94 3.12 C5.85 2.96 6.77 2.8 7.71 2.63 C8.47 2.42 9.22 2.22 10 2 C10.33 1.34 10.66 0.68 11 0 C12.98 0.66 14.96 1.32 17 2 C17 2.99 17 3.98 17 5 C20.96 5 24.92 5 29 5 C29.5 5.99 29.5 5.99 30 7 C30.66 7 31.32 7 32 7 C32 5.35 32 3.7 32 2 C32.66 2 33.32 2 34 2 C34 2.99 34 3.98 34 5 C35.03 4.97 35.03 4.97 36.08 4.94 C39.22 4.85 42.36 4.8 45.5 4.75 C46.58 4.72 47.66 4.68 48.77 4.65 C56.55 4.55 62.19 5.44 67.99 10.86 C69.36 13.76 69.29 16.05 69.19 19.25 C69.15 20.87 69.15 20.87 69.11 22.52 C69.07 23.34 69.04 24.16 69 25 C69.66 25 70.32 25 71 25 C71.33 24.34 71.66 23.68 72 23 C72.66 23.33 73.32 23.66 74 24 C75.71 24.07 77.42 24.08 79.12 24.06 C80.49 24.05 80.49 24.05 81.88 24.04 C82.58 24.02 83.28 24.01 84 24 C83.55 29.37 82.72 34.39 81.44 39.62 C80.32 44.26 79.67 48.25 80 53 C82.42 52.97 82.42 52.97 85 52 C88.39 46.7 89.39 40.69 90.69 34.62 C90.91 33.6 91.14 32.58 91.37 31.53 C91.92 29.02 92.46 26.51 93 24 C94.12 24.02 94.12 24.02 95.27 24.04 C96.25 24.04 97.24 24.05 98.25 24.06 C99.22 24.07 100.2 24.09 101.2 24.1 C103.68 24.01 105.63 23.65 108 23 C110.64 22.83 113.23 22.72 115.88 22.69 C116.57 22.66 117.26 22.63 117.98 22.6 C123.38 22.53 125.92 23.76 130 27 C129.14 29.71 128.55 31.55 126.31 33.38 C123.03 34.26 120.3 33.63 117 33 C116.96 35.34 116.96 35.34 118 38 C119.71 39.48 121.49 40.68 123.41 41.89 C125 43 125 43 126 45 C126.35 50.34 126.48 53.68 123 58 C115.84 64.27 115.84 64.27 110.99 64.2 C109.85 64.19 109.85 64.19 108.69 64.18 C107.51 64.15 107.51 64.15 106.31 64.12 C105.12 64.11 105.12 64.11 103.9 64.1 C101.93 64.07 99.97 64.04 98 64 C98 64.99 98 65.98 98 67 C100.31 67 102.62 67 105 67 C104.34 67.66 103.68 68.32 103 69 C104.32 70.32 105.64 71.64 107 73 C100.63 81.94 94.56 90.08 86 97 C86.61 101.15 88.04 104.3 90 108 C91.96 111.7 93.39 114.85 94 119 C90.69 118.43 89.19 117.52 86.98 115.02 C86.16 114.14 86.16 114.14 85.32 113.24 C84.19 112 83.07 110.74 81.95 109.48 C80.37 107.8 78.9 106.32 77 105 C72.38 104.88 68.8 106.9 64.69 108.88 C56.67 112.44 48.65 113.81 40 115 C39.83 115.99 39.66 116.98 39.48 118 C38.18 125.21 36.78 131.62 33 138 C30.54 135.83 29.55 134.28 28.83 131.09 C28.66 130.35 28.49 129.61 28.31 128.84 C28.15 128.07 27.98 127.3 27.81 126.5 C27.64 125.73 27.46 124.96 27.28 124.16 C26.58 121.05 26 118.19 26 115 C25.39 114.99 24.78 114.97 24.16 114.96 C13.85 114.4 3.36 111.51 -5.75 106.62 C-8.69 104.8 -8.69 104.8 -10.99 105.16 C-13.56 106.23 -14.68 107.6 -16.44 109.75 C-17.04 110.47 -17.64 111.18 -18.26 111.92 C-18.84 112.61 -19.41 113.29 -20 114 C-21.61 115.81 -23.18 117.39 -25 119 C-25.99 119 -26.98 119 -28 119 C-27.33 114.18 -25.42 110.08 -23.44 105.69 C-23.11 104.95 -22.78 104.21 -22.44 103.44 C-21.63 101.63 -20.82 99.81 -20 98 C-21.27 96.89 -21.27 96.89 -22.56 95.76 C-29.05 90 -34.56 84.48 -39.32 77.18 C-41.07 74.91 -42.36 74.03 -45 73 C-44.67 71.35 -44.34 69.7 -44 68 C-42.68 68 -41.36 68 -40 68 C-40 67.34 -40 66.68 -40 66 C-40.66 66 -41.32 66 -42 66 C-43.32 60.72 -44.64 55.44 -46 50 C-46.99 50 -47.98 50 -49 50 C-49.99 54.29 -50.98 58.58 -52 63 C-55.63 63 -59.26 63 -63 63 C-61.41 53.56 -59.29 44.27 -57.11 34.95 C-56.5 32.31 -55.89 29.67 -55.28 27.03 C-54.88 25.33 -54.49 23.63 -54.09 21.93 C-53.91 21.15 -53.73 20.37 -53.55 19.57 C-52.41 14.7 -51.22 9.85 -50 5 C-46.7 5 -43.4 5 -40 5 C-40.66 10.61 -41.32 16.22 -42 22 C-35.07 22 -28.14 22 -21 22 C-21 21.01 -21 20.02 -21 19 C-21.33 18.67 -21.66 18.34 -22 18 C-21.91 16.31 -21.75 14.62 -21.56 12.94 C-21.46 12.02 -21.36 11.1 -21.25 10.15 C-21.17 9.44 -21.09 8.73 -21 8 C-19.68 7.67 -18.36 7.34 -17 7 C-17 6.34 -17 5.68 -17 5 C-12.33 5 -7.67 5 -3 5 C-3.66 4.67 -4.32 4.34 -5 4 C-5 3.01 -5 2.02 -5 1 C-3 0 -3 0 0 0 Z " fill="#050202" transform="translate(150,156)"/>
<path d="M0 0 C0 1.32 0 2.64 0 4 C1.65 3.72 3.29 3.42 4.94 3.12 C5.85 2.96 6.77 2.8 7.71 2.63 C8.47 2.42 9.22 2.22 10 2 C10.33 1.34 10.66 0.68 11 0 C12.98 0.66 14.96 1.32 17 2 C17 2.99 17 3.98 17 5 C20.63 5 24.26 5 28 5 C27.41 11.18 26.43 17.04 24.97 23.06 C24.57 24.76 24.16 26.46 23.76 28.17 C23.13 30.8 22.5 33.44 21.87 36.08 C18.63 49.4 18.63 49.4 17 63 C12.45 63.18 9.12 63 5 61 C5.02 60.34 5.05 59.67 5.07 58.99 C5.24 52.27 5.24 52.27 3 46 C1.48 50.76 0.66 55.2 0.25 60.18 C0 62 0 62 -1 63 C-4.44 63.19 -4.44 63.19 -8 63 C-10 61 -10 61 -10.19 57.19 C-10.06 51.11 -9.52 45.05 -9 39 C-9.99 39 -10.98 39 -12 39 C-12.65 41.52 -13.3 44.04 -13.94 46.56 C-14.21 47.62 -14.21 47.62 -14.49 48.7 C-15.36 52.11 -16.11 55.47 -16.57 58.96 C-17 62 -17 62 -18 63 C-19.69 63.07 -21.38 63.08 -23.06 63.06 C-23.98 63.05 -24.9 63.04 -25.85 63.04 C-26.56 63.02 -27.27 63.01 -28 63 C-27.56 56.97 -26.4 51.35 -24.94 45.5 C-23.45 39.52 -22.55 34.2 -23 28 C-26.74 28.55 -28.18 29.95 -30.56 32.81 C-31.14 33.5 -31.72 34.19 -32.32 34.89 C-32.87 35.59 -33.43 36.28 -34 37 C-34.59 37.66 -35.18 38.33 -35.78 39.01 C-37.22 40.9 -37.22 40.9 -36.78 42.97 C-36.5 43.66 -36.22 44.35 -35.94 45.06 C-35.64 45.84 -35.34 46.61 -35.04 47.41 C-34.52 48.69 -34.52 48.69 -34 50 C-33.26 51.98 -32.54 53.96 -31.81 55.94 C-31.3 57.31 -31.3 57.31 -30.77 58.71 C-30 61 -30 61 -30 63 C-33.96 63 -37.92 63 -42 63 C-43.32 58.71 -44.64 54.42 -46 50 C-46.99 50 -47.98 50 -49 50 C-49.99 54.29 -50.98 58.58 -52 63 C-55.63 63 -59.26 63 -63 63 C-61.41 53.56 -59.29 44.27 -57.11 34.95 C-56.5 32.31 -55.89 29.67 -55.28 27.03 C-54.88 25.33 -54.49 23.63 -54.09 21.93 C-53.91 21.15 -53.73 20.37 -53.55 19.57 C-52.41 14.7 -51.22 9.85 -50 5 C-46.7 5 -43.4 5 -40 5 C-40.66 10.61 -41.32 16.22 -42 22 C-35.07 22 -28.14 22 -21 22 C-21 21.01 -21 20.02 -21 19 C-21.33 18.67 -21.66 18.34 -22 18 C-21.91 16.31 -21.75 14.62 -21.56 12.94 C-21.46 12.02 -21.36 11.1 -21.25 10.15 C-21.17 9.44 -21.09 8.73 -21 8 C-19.68 7.67 -18.36 7.34 -17 7 C-17 6.34 -17 5.68 -17 5 C-12.33 5 -7.67 5 -3 5 C-3.66 4.67 -4.32 4.34 -5 4 C-5 3.01 -5 2.02 -5 1 C-3 0 -3 0 0 0 Z " fill="#100605" transform="translate(150,156)"/>
<path d="M0 0 C0.72 0.27 1.45 0.53 2.19 0.8 C13.19 4.97 24.7 10.12 33.94 17.5 C34.86 18.23 34.86 18.23 35.81 18.97 C39.42 22.37 40.43 25.39 40.75 30.31 C40.38 39.3 36.51 47.38 32.94 55.5 C32.61 55.5 32.28 55.5 31.94 55.5 C31.58 53.55 31.22 51.59 30.86 49.64 C29.36 46.16 26.6 44.24 23.16 42.71 C21.08 41.95 19 41.26 16.89 40.59 C16.12 40.34 15.35 40.08 14.56 39.82 C12.1 39.02 9.65 38.23 7.19 37.44 C5.55 36.9 3.92 36.37 2.28 35.83 C-0.75 34.84 -3.78 33.86 -6.82 32.88 C-8.23 32.42 -9.65 31.96 -11.06 31.5 C-11.86 31.24 -12.66 30.98 -13.48 30.72 C-14.28 30.46 -15.07 30.2 -15.89 29.93 C-16.61 29.7 -17.33 29.46 -18.07 29.22 C-22.92 27.46 -25.96 25.16 -28.44 20.69 C-30.15 16.77 -30.75 13.8 -30.06 9.5 C-27.98 5.06 -25.45 0.91 -21.06 -1.5 C-13.77 -3.67 -6.99 -2.65 0 0 Z " fill="#FBFBFB" transform="translate(211.0625,92.5)"/>
<path d="M0 0 C0.76 -0.03 1.52 -0.06 2.3 -0.09 C8.95 -0.16 14.18 1.55 19.04 6.2 C21.45 11.16 20.87 17.51 19.37 22.7 C17.21 27.45 14.32 30.35 10.06 33.31 C9.4 33.31 8.74 33.31 8.06 33.31 C8.33 34.18 8.33 34.18 8.6 35.07 C9.4 37.71 10.2 40.36 11 43 C11.42 44.37 11.42 44.37 11.84 45.76 C12.11 46.65 12.38 47.54 12.65 48.45 C13.02 49.67 13.02 49.67 13.4 50.91 C14.08 53.36 14.59 55.81 15.06 58.31 C13.29 58.42 11.52 58.5 9.75 58.56 C8.76 58.61 7.78 58.66 6.76 58.7 C4.06 58.31 4.06 58.31 2.34 56.88 C0.45 53.09 -0.3 49.19 -1.12 45.06 C-1.3 44.22 -1.48 43.38 -1.66 42.52 C-2.1 40.45 -2.52 38.38 -2.94 36.31 C-4.59 36.31 -6.24 36.31 -7.94 36.31 C-8.09 37.86 -8.09 37.86 -8.25 39.44 C-9.03 45.81 -10.54 52.05 -11.94 58.31 C-15.57 58.31 -19.2 58.31 -22.94 58.31 C-22.39 50.22 -21.05 42.73 -19.06 34.88 C-18.68 33.31 -18.68 33.31 -18.29 31.72 C-17.51 28.58 -16.73 25.45 -15.94 22.31 C-15.37 20.05 -14.81 17.79 -14.24 15.53 C-13.81 13.79 -13.37 12.05 -12.94 10.31 C-13.93 9.98 -14.92 9.65 -15.94 9.31 C-15.94 6.67 -15.94 4.03 -15.94 1.31 C-10.6 0.44 -5.4 0.07 0 0 Z " fill="#F6F6F6" transform="translate(198.9375,160.6875)"/>
<path d="M0 0 C4.75 0.08 7.12 0.68 10.46 4.13 C11.64 5.45 12.79 6.78 13.94 8.12 C15.17 9.5 16.4 10.88 17.64 12.25 C18.22 12.91 18.8 13.56 19.4 14.24 C32.89 29.12 51.99 36.2 71.72 37.32 C86.26 37.83 99.03 34.77 112 28 C112.96 27.51 113.93 27.02 114.92 26.51 C124.84 21.13 133.29 14.06 139.81 4.81 C141.4 2.62 141.4 2.62 143 1 C146.94 0.44 146.94 0.44 150 1 C145.13 10.73 137.54 19.32 129 26 C129.61 30.15 131.04 33.3 133 37 C134.96 40.7 136.39 43.85 137 48 C133.69 47.43 132.19 46.52 129.98 44.02 C129.16 43.14 129.16 43.14 128.32 42.24 C127.19 41 126.07 39.74 124.95 38.48 C123.37 36.8 121.9 35.32 120 34 C115.38 33.88 111.8 35.9 107.69 37.88 C99.67 41.44 91.65 42.81 83 44 C82.83 44.99 82.66 45.98 82.48 47 C81.18 54.21 79.78 60.62 76 67 C73.54 64.83 72.55 63.28 71.83 60.09 C71.66 59.35 71.49 58.61 71.31 57.84 C71.15 57.07 70.98 56.3 70.81 55.5 C70.64 54.73 70.46 53.96 70.28 53.16 C69.58 50.05 69 47.19 69 44 C68.39 43.99 67.78 43.97 67.16 43.96 C56.85 43.4 46.36 40.51 37.25 35.62 C34.31 33.8 34.31 33.8 32.01 34.16 C29.44 35.23 28.32 36.6 26.56 38.75 C25.96 39.47 25.36 40.18 24.74 40.92 C24.16 41.61 23.59 42.29 23 43 C21.39 44.81 19.82 46.39 18 48 C17.01 48 16.02 48 15 48 C15.67 43.18 17.58 39.08 19.56 34.69 C20.06 33.58 20.06 33.58 20.56 32.44 C21.37 30.63 22.18 28.81 23 27 C22.17 26.27 21.33 25.55 20.47 24.8 C3.14 9.41 3.14 9.41 0 0 Z " fill="#E95B0E" transform="translate(107,227)"/>
<path d="M0 0 C0.66 0 1.32 0 2 0 C2.87 2.25 3.72 4.5 4.56 6.75 C4.93 7.7 4.93 7.7 5.31 8.67 C6.27 11.28 7.02 13.5 6.89 16.29 C5.7 18.58 4.37 19.32 2.12 20.56 C-0.86 22.22 -0.86 22.22 -3.34 24.51 C-5.4 26.36 -6.83 26.62 -9.54 27.11 C-10.44 27.28 -11.35 27.45 -12.27 27.63 C-13.72 27.91 -13.72 27.91 -15.19 28.19 C-29.82 31.25 -41.92 36.81 -53 47 C-53.83 47.74 -54.66 48.47 -55.51 49.23 C-65.65 58.73 -72.26 70 -77 83 C-78.98 83 -80.96 83 -83 83 C-82.54 77.01 -81.31 72.77 -78.38 67.56 C-78.02 66.91 -77.67 66.27 -77.3 65.6 C-74.72 60.99 -71.81 56.83 -68.35 52.83 C-66.85 50.8 -66.19 49.52 -66 47 C-69.53 40.55 -76.73 35.68 -82.38 31.12 C-83.97 29.81 -85.49 28.41 -87 27 C-87 26.01 -87 25.02 -87 24 C-83.89 24.49 -81.1 25.3 -78.19 26.44 C-75.49 27.49 -72.88 28.31 -70.06 28.94 C-64.44 30.25 -59.35 32.85 -54.19 35.38 C-51.97 36.26 -51.97 36.26 -49.86 35.04 C-49.25 34.7 -48.63 34.35 -48 34 C-48.35 33.13 -48.7 32.26 -49.06 31.37 C-49.51 30.21 -49.97 29.06 -50.44 27.88 C-51.12 26.17 -51.12 26.17 -51.81 24.43 C-52.91 21.26 -53.56 18.32 -54 15 C-49.59 15.4 -47.46 18.4 -44.75 21.56 C-44.06 22.34 -44.06 22.34 -43.36 23.14 C-42.23 24.42 -41.11 25.71 -40 27 C-36.44 26.22 -33.15 24.93 -29.75 23.62 C-21.97 20.8 -14.16 19.3 -6 18 C-5.65 16.78 -5.3 15.57 -4.94 14.32 C-4.48 12.73 -4.02 11.15 -3.56 9.56 C-3.33 8.76 -3.1 7.96 -2.87 7.13 C-1.11 1.11 -1.11 1.11 0 0 Z " fill="#EB5F0F" transform="translate(182,69)"/>
<path d="M0 0 C0.66 0.99 1.32 1.98 2 3 C0.95 3.33 -0.1 3.66 -1.19 4 C-5.88 6.02 -8.07 9.37 -10 14 C-10.78 19.55 -9.39 23.12 -7 28 C-10 28 -10 28 -12 27 C-12.07 27.63 -12.14 28.26 -12.21 28.91 C-12.47 29.6 -12.73 30.29 -13 31 C-14.98 31.81 -14.98 31.81 -17.62 32.44 C-25.67 35.07 -31.18 40.75 -37.27 46.4 C-39.61 48.57 -42.03 50.65 -44.44 52.75 C-48.99 56.86 -53.04 61.32 -57 66 C-57.33 65.34 -57.66 64.68 -58 64 C-57 61.69 -57 61.69 -55.56 59 C-53.62 55.67 -53.62 55.67 -53 52 C-55.31 51.67 -57.62 51.34 -60 51 C-59.67 50.34 -59.34 49.68 -59 49 C-58.01 49 -57.02 49 -56 49 C-55.34 47.68 -54.68 46.36 -54 45 C-53.34 45 -52.68 45 -52 45 C-52 44.34 -52 43.68 -52 43 C-49.36 42.34 -46.72 41.68 -44 41 C-44.33 39.68 -44.66 38.36 -45 37 C-44.36 36.81 -43.72 36.63 -43.06 36.44 C-40.58 35.06 -40.58 35.06 -40.25 31.38 C-40.17 30.26 -40.09 29.15 -40 28 C-39.01 27.67 -38.02 27.34 -37 27 C-37 26.34 -37 25.68 -37 25 C-37.66 24.67 -38.32 24.34 -39 24 C-38.04 23.57 -38.04 23.57 -37.06 23.12 C-34.85 22.17 -34.85 22.17 -34 20 C-34.66 20.33 -35.32 20.66 -36 21 C-39.86 22.29 -42.94 22.14 -47 22 C-47.33 20.02 -47.66 18.04 -48 16 C-39.99 11.5 -31.87 9.65 -22.88 8.05 C-17.15 6.92 -13.54 5.45 -9.35 1.32 C-6.3 -1.67 -3.95 -0.99 0 0 Z " fill="#0C0605" transform="translate(192,88)"/>
<path d="M0 0 C0 4.14 -0.15 4.7 -2.5 7.75 C-2.96 8.36 -3.43 8.98 -3.91 9.61 C-4.27 10.07 -4.63 10.53 -5 11 C-8.88 9.12 -8.88 9.12 -10 8 C-14.03 7.68 -14.03 7.68 -18 8 C-20.22 10.73 -20.22 10.73 -20 13.37 C-18.62 17.01 -16.08 18.79 -13.06 21.06 C-6.27 26.25 -6.27 26.25 -5 30 C-4.15 37.04 -6 42.17 -10 48 C-14.33 52.23 -19.34 54.75 -25.38 55.31 C-31.1 54.82 -35.62 52.68 -40 49 C-39.39 45.01 -37.29 42.26 -35 39 C-32.45 39.46 -31.15 39.87 -29.19 41.62 C-26.92 43.34 -26.92 43.34 -23.38 42.81 C-19.95 42.3 -19.95 42.3 -18 40 C-17.35 37.63 -17.35 37.63 -18 35 C-19.91 33.1 -21.67 31.58 -23.81 30 C-28.33 26.6 -32.22 23.6 -33.47 17.82 C-33.56 11.65 -31.97 7.72 -28 3 C-19.86 -5.35 -9.8 -6.82 0 0 Z " fill="#F37409" transform="translate(92,165)"/>
<path d="M0 0 C3.3 0 6.6 0 10 0 C8.07 14.78 8.07 14.78 6 21 C6.68 20.5 7.36 20.01 8.06 19.5 C11.75 17.62 13.91 17.42 18 18 C20.94 20 20.94 20 23 23 C23.72 30.57 21.72 37.67 20 45 C19.57 46.88 19.57 46.88 19.13 48.79 C18.43 51.86 17.72 54.93 17 58 C13.37 58 9.74 58 6 58 C6.85 52.36 8.21 46.89 9.63 41.37 C10.75 36.78 11.19 32.72 11 28 C8.58 28.03 8.58 28.03 6 29 C2.61 34.29 1.65 40.26 0.38 46.31 C-0.05 48.31 -0.48 50.31 -0.91 52.3 C-1.1 53.18 -1.28 54.06 -1.48 54.96 C-2 57 -2 57 -3 58 C-6.33 58.14 -9.66 58.04 -13 58 C-10.99 46.68 -8.6 35.49 -5.98 24.3 C-5.37 21.65 -4.75 19 -4.14 16.35 C-3.75 14.65 -3.35 12.96 -2.96 11.26 C-2.78 10.47 -2.6 9.69 -2.41 8.88 C-1.71 5.87 -0.98 2.93 0 0 Z " fill="#F4F4F4" transform="translate(290,161)"/>
<path d="M0 0 C3.3 0 6.6 0 10 0 C9.5 6.86 8.07 13.32 6.37 19.97 C5.44 23.72 4.76 27.13 5 31 C6.48 29.38 7.96 27.75 9.44 26.12 C10.26 25.22 11.08 24.32 11.93 23.38 C14.01 21.19 14.01 21.19 15 19 C18.96 19 22.92 19 27 19 C22.65 24.98 17.99 30.53 13 36 C14.94 41.96 17.03 47.85 19.23 53.71 C20 56 20 56 20 58 C16.04 58 12.08 58 8 58 C6.68 53.71 5.36 49.42 4 45 C3.01 45 2.02 45 1 45 C0.01 49.29 -0.98 53.58 -2 58 C-5.63 58 -9.26 58 -13 58 C-11.41 48.56 -9.29 39.27 -7.11 29.95 C-6.5 27.31 -5.89 24.67 -5.28 22.03 C-4.88 20.33 -4.49 18.63 -4.09 16.93 C-3.91 16.15 -3.73 15.37 -3.55 14.57 C-2.41 9.7 -1.22 4.85 0 0 Z " fill="#F47008" transform="translate(100,161)"/>
<path d="M0 0 C3.3 0 6.6 0 10 0 C9.55 5.37 8.72 10.39 7.44 15.62 C6.32 20.26 5.67 24.25 6 29 C8.42 28.97 8.42 28.97 11 28 C14.39 22.7 15.39 16.69 16.69 10.62 C17.02 9.09 17.02 9.09 17.37 7.53 C17.92 5.02 18.46 2.51 19 0 C22.3 0 25.6 0 29 0 C28.41 8.63 26.54 16.75 24.44 25.12 C24.1 26.48 23.77 27.83 23.44 29.18 C22.63 32.45 21.82 35.73 21 39 C18.69 39 16.38 39 14 39 C13.67 37.68 13.34 36.36 13 35 C12.34 35 11.68 35 11 35 C11 35.66 11 36.32 11 37 C6.76 39.83 2.98 39.77 -2 39 C-4.62 37.06 -4.62 37.06 -6 34 C-6.55 26.24 -4.92 19.43 -3 11.94 C-2.71 10.79 -2.43 9.63 -2.13 8.45 C-1.43 5.63 -0.72 2.81 0 0 Z " fill="#F6F6F6" transform="translate(224,180)"/>
<path d="M0 0 C2.3 1.12 3.98 2.39 6 4 C5.14 6.71 4.55 8.55 2.31 10.38 C-0.97 11.26 -3.7 10.63 -7 10 C-7.04 12.34 -7.04 12.34 -6 15 C-4.29 16.48 -2.51 17.68 -0.59 18.89 C1 20 1 20 2 22 C2.35 27.34 2.48 30.68 -1 35 C-6.28 39.63 -9.38 40.33 -16.29 40.3 C-19.83 39.91 -21.63 38.62 -24 36 C-22.88 33.03 -21.78 30.67 -20 28 C-19.46 28.31 -18.93 28.62 -18.38 28.94 C-15.6 30.18 -13 30.59 -10 31 C-9.34 29.35 -8.68 27.7 -8 26 C-8.54 25.77 -9.07 25.55 -9.62 25.31 C-15.98 21.8 -15.98 21.8 -18 19 C-18.98 14.88 -19 10.95 -17.04 7.12 C-12.53 1.38 -7.32 -1.35 0 0 Z " fill="#F8F8F8" transform="translate(274,179)"/>
<path d="M0 0 C3.3 0 6.6 0 10 0 C9.41 6.18 8.43 12.04 6.97 18.06 C6.57 19.76 6.16 21.46 5.76 23.17 C5.13 25.8 4.5 28.44 3.87 31.08 C0.63 44.4 0.63 44.4 -1 58 C-7.62 58.25 -7.62 58.25 -11 56 C-12.25 49.19 -10.42 42.08 -8.85 35.47 C-8.63 34.51 -8.41 33.55 -8.18 32.57 C-7.49 29.54 -6.77 26.52 -6.06 23.5 C-5.59 21.44 -5.11 19.39 -4.64 17.33 C-4.19 15.37 -3.74 13.42 -3.29 11.47 C-3.07 10.55 -2.86 9.63 -2.64 8.68 C-2.44 7.83 -2.24 6.98 -2.03 6.11 C-1.86 5.36 -1.68 4.61 -1.5 3.84 C-1 2 -1 2 0 0 Z " fill="#F77307" transform="translate(168,161)"/>
<path d="M0 0 C2.57 0.03 5.14 0.07 7.71 0.1 C6.3 10.41 4.13 20.47 1.75 30.59 C-0.13 38.59 -1.77 46.55 -2.87 54.7 C-3.29 57.1 -3.29 57.1 -4.29 58.1 C-7.72 58.29 -7.72 58.29 -11.29 58.1 C-13.29 56.1 -13.29 56.1 -13.54 54.23 C-13.48 48.85 -12.85 43.92 -11.61 38.7 C-11.35 37.55 -11.35 37.55 -11.08 36.38 C-10.53 33.97 -9.97 31.57 -9.41 29.16 C-8.86 26.76 -8.31 24.36 -7.76 21.96 C-7.41 20.42 -7.06 18.89 -6.7 17.35 C-5.59 12.5 -4.56 7.64 -3.68 2.75 C-3.06 0.16 -2.7 0.12 0 0 Z " fill="#F1710B" transform="translate(153.28515625,160.90234375)"/>
<path d="M0 0 C0.27 0.97 0.54 1.94 0.81 2.94 C1.4 4.45 1.4 4.45 2 6 C2.99 6.33 3.98 6.66 5 7 C5 11 5 11 3.78 12.46 C3.17 12.95 2.56 13.44 1.94 13.94 C1.21 14.54 0.49 15.14 -0.26 15.75 C-1.17 16.5 -2.07 17.24 -3 18 C-5.47 20.11 -7.92 22.24 -10.38 24.38 C-11.03 24.94 -11.68 25.51 -12.35 26.09 C-13.64 27.21 -14.93 28.33 -16.22 29.45 C-17.78 30.81 -19.35 32.17 -20.91 33.52 C-26.38 38.34 -31.29 43.44 -36 49 C-36.33 48.34 -36.66 47.68 -37 47 C-33.87 38.71 -29.62 32.53 -22 28 C-20.73 25.97 -20.73 25.97 -20 24 C-19.67 23.67 -19.34 23.34 -19 23 C-19.99 23 -20.98 23 -22 23 C-18.87 16.1 -8.42 0 0 0 Z " fill="#120A06" transform="translate(171,105)"/>
<path d="M0 0 C3.63 0 7.26 0 11 0 C7.12 20.11 7.12 20.11 4.59 28.79 C4.02 30.91 3.66 32.96 3.38 35.12 C3 38 3 38 2 39 C0.31 39.07 -1.38 39.08 -3.06 39.06 C-3.98 39.05 -4.9 39.04 -5.85 39.04 C-6.56 39.02 -7.27 39.01 -8 39 C-7.34 30.62 -5.4 22.59 -3.44 14.44 C-3.1 13.03 -2.77 11.63 -2.44 10.22 C-1.63 6.82 -0.82 3.41 0 0 Z " fill="#FB6A04" transform="translate(130,180)"/>
<path d="M0 0 C1.46 0.11 2.92 0.24 4.38 0.38 C5.59 0.48 5.59 0.48 6.84 0.59 C9 1 9 1 11 3 C11.05 5.06 11.05 5.06 10.75 7.44 C10.66 8.22 10.57 9 10.48 9.81 C10 12 10 12 8 15 C4.38 15.69 4.38 15.69 1 16 C1 16.66 1 17.32 1 18 C3.64 18 6.28 18 9 18 C8.86 19.23 8.86 19.23 8.71 20.48 C8.6 21.56 8.49 22.64 8.38 23.75 C8.26 24.82 8.14 25.88 8.02 26.98 C8 30.09 8.5 31.37 10 34 C9.62 36.25 9.62 36.25 9 38 C8.85 37.04 8.85 37.04 8.69 36.06 C8.46 35.38 8.23 34.7 8 34 C7.01 33.67 6.02 33.34 5 33 C5.12 31.6 5.24 30.21 5.38 28.81 C5.44 28.04 5.51 27.26 5.59 26.46 C6 24 6 24 8 19 C4.37 19 0.74 19 -3 19 C-3.33 21.64 -3.66 24.28 -4 27 C-4.27 26.36 -4.54 25.72 -4.81 25.06 C-5.89 22.67 -5.89 22.67 -9 22 C-8.34 21.34 -7.68 20.68 -7 20 C-10.63 19.67 -14.26 19.34 -18 19 C-18.66 20.32 -19.32 21.64 -20 23 C-21.31 24.62 -22.67 26.2 -24.06 27.75 C-24.78 28.55 -25.49 29.35 -26.22 30.17 C-26.81 30.78 -27.4 31.38 -28 32 C-28.33 32 -28.66 32 -29 32 C-28.57 25.75 -27.99 19.96 -26 14 C-25.67 14.99 -25.34 15.98 -25 17 C-18.07 17 -11.14 17 -4 17 C-4 16.01 -4 15.02 -4 14 C-4.33 13.67 -4.66 13.34 -5 13 C-4.91 11.31 -4.75 9.62 -4.56 7.94 C-4.46 7.02 -4.36 6.1 -4.25 5.15 C-4.17 4.44 -4.09 3.73 -4 3 C-2.68 2.67 -1.36 2.34 0 2 C0 1.34 0 0.68 0 0 Z " fill="#180704" transform="translate(133,161)"/>
<path d="M0 0 C0.99 0 1.98 0 3 0 C2.44 4.14 1.51 7.57 -0.21 11.36 C-0.65 12.33 -1.09 13.3 -1.54 14.3 C-2 15.29 -2.46 16.29 -2.94 17.31 C-3.39 18.33 -3.85 19.34 -4.32 20.38 C-7.74 27.87 -7.74 27.87 -10 29 C-12.61 27.76 -15.11 26.47 -17.62 25.06 C-18.33 24.68 -19.04 24.29 -19.77 23.89 C-21.51 22.94 -23.26 21.97 -25 21 C-23.8 17.4 -23.12 17.23 -19.89 15.51 C-19.05 15.05 -18.21 14.59 -17.35 14.12 C-15.59 13.17 -13.82 12.23 -12.06 11.29 C-6.88 8.44 -3.82 6.23 -1 1 C-0.67 0.67 -0.34 0.34 0 0 Z " fill="#F0600C" transform="translate(246,69)"/>
<path d="M0 0 C7.44 1.71 14.63 4.09 21.88 6.5 C23.73 7.11 23.73 7.11 25.62 7.72 C26.79 8.11 27.97 8.5 29.18 8.91 C30.25 9.26 31.32 9.61 32.42 9.98 C35 11 35 11 37 13 C35.01 13.38 33.01 13.71 31 14 C30.67 13.67 30.34 13.34 30 13 C30.33 14.65 30.66 16.3 31 18 C31.66 18 32.32 18 33 18 C32.34 20.31 31.68 22.62 31 25 C24.8 23.52 19.95 22.36 16 17 C15.25 14.25 15.25 14.25 15 12 C14.67 11.67 14.34 11.34 14 11 C13.96 9.33 13.96 7.67 14 6 C12.74 5.86 11.48 5.71 10.19 5.56 C7.57 5.26 5.53 4.84 3 4 C3 3.34 3 2.68 3 2 C2.01 2 1.02 2 0 2 C0 1.34 0 0.68 0 0 Z " fill="#090707" transform="translate(201,124)"/>
<path d="M0 0 C0.66 0 1.32 0 2 0 C14.93 22.97 14.93 22.97 14 35 C12.02 35 10.04 35 8 35 C7.76 34.02 7.52 33.04 7.27 32.04 C5.41 24.71 3.44 17.77 0 11 C-1.26 8.48 -0.92 7.15 -0.56 4.38 C-0.46 3.56 -0.36 2.74 -0.25 1.9 C-0.17 1.27 -0.09 0.65 0 0 Z " fill="#E45D11" transform="translate(254,131)"/>
<path d="M0 0 C0 4 0 4 -1.22 5.46 C-2.13 6.19 -2.13 6.19 -3.06 6.94 C-3.79 7.54 -4.51 8.14 -5.26 8.75 C-6.17 9.5 -7.07 10.24 -8 11 C-10.47 13.11 -12.92 15.24 -15.38 17.38 C-16.03 17.94 -16.68 18.51 -17.35 19.09 C-18.64 20.21 -19.93 21.33 -21.22 22.45 C-22.78 23.81 -24.35 25.17 -25.91 26.52 C-31.38 31.34 -36.29 36.44 -41 42 C-41.33 41.34 -41.66 40.68 -42 40 C-38.63 31.09 -33.7 24.95 -25.73 19.9 C-21.01 16.62 -16.76 12.78 -12.43 9 C-11.87 8.51 -11.31 8.03 -10.74 7.52 C-9.51 6.45 -8.3 5.37 -7.08 4.29 C-6.46 3.74 -5.84 3.19 -5.2 2.62 C-4.63 2.12 -4.07 1.62 -3.48 1.1 C-2 0 -2 0 0 0 Z " fill="#E99B1C" transform="translate(176,112)"/>
<path d="M0 0 C1.8 1.37 1.8 1.37 3 3 C2.94 5.5 2.94 5.5 2 8 C-1.89 11.63 -5.72 12.33 -10.99 12.3 C-14.09 11.84 -15.84 10.16 -18 8 C-17.94 6.25 -17.94 6.25 -17 4 C-11.75 -0.02 -6.58 -1.28 0 0 Z " fill="#ED680E" transform="translate(277,116)"/>
<path d="M0 0 C0 0.66 0 1.32 0 2 C2.31 2.66 4.62 3.32 7 4 C7 4.66 7 5.32 7 6 C7.99 6.33 8.98 6.66 10 7 C10 7.66 10 8.32 10 9 C9.34 9 8.68 9 8 9 C8.19 9.62 8.37 10.24 8.56 10.88 C9 13 9 13 8 15 C6.56 14.89 5.12 14.76 3.69 14.62 C2.49 14.52 2.49 14.52 1.26 14.41 C-1 14 -1 14 -4 12 C-4 11.34 -4 10.68 -4 10 C-4.99 10.33 -5.98 10.66 -7 11 C-7.66 10.34 -8.32 9.68 -9 9 C-8.62 5.38 -8.62 5.38 -8 2 C-2.25 0 -2.25 0 0 0 Z " fill="#130605" transform="translate(266,237)"/>
<path d="M0 0 C3.16 4.22 3.34 5.06 3 10 C2.34 10 1.68 10 1 10 C1.12 11.61 1.12 11.61 1.25 13.25 C1 17 1 17 -0.88 19.19 C-1.93 20.08 -1.93 20.08 -3 21 C-4.18 23.1 -4.18 23.1 -5 25 C-5.33 25.33 -5.66 25.66 -6 26 C-6.45 26.68 -6.91 27.36 -7.38 28.06 C-7.91 28.7 -8.45 29.34 -9 30 C-9.99 30 -10.98 30 -12 30 C-14.16 17.7 -14.16 17.7 -11.46 13.73 C-7.32 10.54 -5.41 10 0 10 C0 6.7 0 3.4 0 0 Z " fill="#1D100B" transform="translate(242,142)"/>
<path d="M0 0 C8 0 8 0 10.06 1.06 C11.64 4.33 10.94 6.58 10 10 C7.81 12.58 6.03 14.48 3 16 C1.02 16 -0.96 16 -3 16 C-2.01 10.72 -1.02 5.44 0 0 Z " fill="#0C0C0C" transform="translate(197,172)"/>
<path d="M0 0 C0.33 0 0.66 0 1 0 C1.1 6.15 1.1 6.15 1 8 C0.67 8.33 0.34 8.66 0 9 C-0.24 11.53 -0.42 14.03 -0.56 16.56 C-0.61 17.27 -0.65 17.98 -0.69 18.72 C-0.8 20.48 -0.9 22.24 -1 24 C-1.99 24 -2.98 24 -4 24 C-4.33 27.96 -4.66 31.92 -5 36 C-5.66 36 -6.32 36 -7 36 C-6.67 37.98 -6.34 39.96 -6 42 C-5.34 41.01 -4.68 40.02 -4 39 C-2.68 39.33 -1.36 39.66 0 40 C-0.99 40 -1.98 40 -3 40 C-3 40.66 -3 41.32 -3 42 C-2.01 42 -1.02 42 0 42 C0.29 40.39 0.29 40.39 0.59 38.75 C0.85 37.36 1.11 35.96 1.38 34.56 C1.5 33.86 1.63 33.15 1.76 32.42 C2.11 30.6 2.55 28.8 3 27 C3.66 26.67 4.32 26.34 5 26 C4.01 32.93 3.02 39.86 2 47 C-5 47 -5 47 -8 45 C-10.18 36.24 -6.05 25.4 -4 16.88 C-3.61 15.23 -3.23 13.59 -2.84 11.95 C-1.91 7.97 -0.96 3.98 0 0 Z " fill="#DD6415" transform="translate(165,172)"/>
<path d="M0 0 C0.33 0.66 0.66 1.32 1 2 C1.99 2 2.98 2 4 2 C4 2.66 4 3.32 4 4 C5.32 4.33 6.64 4.66 8 5 C8.37 11.48 8.37 11.48 6.62 13.94 C5 15 5 15 3 15 C3 15.66 3 16.32 3 17 C0.36 17 -2.28 17 -5 17 C-4.72 14.85 -4.43 12.71 -4.12 10.56 C-3.88 8.77 -3.88 8.77 -3.63 6.94 C-3.42 5.97 -3.22 5 -3 4 C-2.34 3.67 -1.68 3.34 -1 3 C-0.67 2.01 -0.34 1.02 0 0 Z " fill="#0D0302" transform="translate(142,55)"/>
<path d="M0 0 C2 2 2 2 2.44 4.81 C2 8 2 8 -0.19 10.88 C-3 13 -3 13 -5.62 13.5 C-8 13 -8 13 -9.81 11.88 C-11.58 9.09 -11.46 7.23 -11 4 C-8.04 -0.49 -5.14 -0.57 0 0 Z " fill="#E28219" transform="translate(142,162)"/>
<path d="M0 0 C0.75 0 1.51 0.01 2.29 0.01 C4.15 0.03 6.01 0.04 7.88 0.06 C8.87 4.18 8.75 6.21 6.88 10.06 C2.28 9.52 -0.99 8.3 -5 6 C-5.97 5.45 -6.93 4.9 -7.93 4.34 C-8.65 3.92 -9.38 3.5 -10.12 3.06 C-10.12 2.4 -10.12 1.74 -10.12 1.06 C-6.94 -0.53 -3.5 -0.04 0 0 Z " fill="#EF5D0C" transform="translate(88.125,136.9375)"/>
<path d="M0 0 C0.99 0.33 1.98 0.66 3 1 C3 5.29 3 9.58 3 14 C4.65 14 6.3 14 8 14 C8.33 14.99 8.66 15.98 9 17 C8.34 17.66 7.68 18.32 7 19 C7 18.34 7 17.68 7 17 C6.34 17 5.68 17 5 17 C4.8 22.2 4.81 26.18 7 31 C6.67 31.66 6.34 32.32 6 33 C5.34 33 4.68 33 4 33 C3.34 32.01 2.68 31.02 2 30 C1.01 29.67 0.02 29.34 -1 29 C-1 29.66 -1 30.32 -1 31 C-1.99 30.67 -2.98 30.34 -4 30 C-3.46 28.71 -3.46 28.71 -2.91 27.39 C0.6 18.46 3.17 9.52 0 0 Z " fill="#16100F" transform="translate(249,114)"/>
<path d="M0 0 C-0.5 4.4 -1.77 6.94 -5 10 C-8.62 10.94 -8.62 10.94 -12 11 C-12.66 10.34 -13.32 9.68 -14 9 C-13.91 5.6 -13.21 4.24 -10.94 1.69 C-6.98 -0.59 -4.51 -0.31 0 0 Z " fill="#F46409" transform="translate(106,239)"/>
<path d="M0 0 C0.33 0 0.66 0 1 0 C1 2.97 1 5.94 1 9 C1.99 8.67 2.98 8.34 4 8 C4.23 10.05 4.46 12.1 4.68 14.15 C4.82 16.01 4.82 16.01 6 17 C6.33 14.03 6.66 11.06 7 8 C7.66 8 8.32 8 9 8 C8.34 11.63 7.68 15.26 7 19 C3.37 19 -0.26 19 -4 19 C-2.88 12.59 -1.66 6.29 0 0 Z " fill="#ED610B" transform="translate(91,200)"/>
<path d="M0 0 C8.26 -0.32 8.26 -0.32 11 2 C11.75 5.12 11.75 5.12 12 8 C11.01 8.66 10.02 9.32 9 10 C6.74 9.54 6.74 9.54 4.31 8.62 C3.1 8.18 3.1 8.18 1.86 7.73 C0.94 7.37 0.94 7.37 0 7 C0 4.69 0 2.38 0 0 Z " fill="#130403" transform="translate(65,122)"/>
<path d="M0 0 C1.98 0 3.96 0 6 0 C6 0.66 6 1.32 6 2 C6.99 2.33 7.98 2.66 9 3 C10.19 5.56 10.19 5.56 11 8 C7.99 11.01 5.18 10.6 1 11 C0.83 9.54 0.67 8.08 0.5 6.62 C0.41 5.81 0.31 5 0.22 4.16 C0 2 0 2 0 0 Z " fill="#0A0707" transform="translate(275,94)"/>
<path d="M0 0 C1 1 1 1 1.31 3.31 C1 6 1 6 -0.69 8.31 C-3.4 10.29 -4.71 10.44 -8 10 C-9 9 -9 9 -9.25 6.12 C-9 3 -9 3 -7.88 1.12 C-5.19 -0.49 -3.06 -0.27 0 0 Z " fill="#DD6E1C" transform="translate(94,254)"/>
<path d="M0 0 C7.24 0.48 7.24 0.48 10.56 2.75 C12 5 12 5 11.75 7.75 C11.5 8.49 11.25 9.24 11 10 C6.83 9.76 4.65 9.62 1.56 6.69 C0 4 0 4 0 0 Z " fill="#EB7B13" transform="translate(259,239)"/>
<path d="M0 0 C5.31 0.52 8.72 1.9 13 5 C13.94 8.25 13.94 8.25 14 11 C8.7 10.38 5.34 8.86 1.19 5.56 C0 4 0 4 0 0 Z " fill="#584130" transform="translate(217,137)"/>
<path d="M0 0 C3.47 0.05 3.47 0.05 6.93 0.1 C6.93 3.07 6.93 6.04 6.93 9.1 C3.96 9.1 0.99 9.1 -2.07 9.1 C-2.95 2.95 -2.95 2.95 -3.07 1.1 C-2.07 0.1 -2.07 0.1 0 0 Z " fill="#040203" transform="translate(218.06640625,284.90234375)"/>
<path d="M0 0 C0.68 1.79 0.68 1.79 1 4 C-0.15 5.68 -0.15 5.68 -1.94 7.31 C-2.58 7.91 -3.23 8.52 -3.9 9.14 C-4.94 10.06 -4.94 10.06 -6 11 C-6.67 11.6 -7.35 12.21 -8.04 12.83 C-11.96 16.3 -15.96 19.67 -20 23 C-16.33 14.91 -8.07 4.04 0 0 Z " fill="#DE9626" transform="translate(169,105)"/>
<path d="M0 0 C1.65 0 3.3 0 5 0 C5.66 2.97 6.32 5.94 7 9 C5.82 9.09 5.82 9.09 4.62 9.19 C3.76 9.46 2.89 9.72 2 10 C0.63 12.48 0.63 12.48 0 15 C-2.6 11.1 -1.81 8.37 -1 4 C-0.7 2.66 -0.38 1.32 0 0 Z " fill="#181818" transform="translate(191,197)"/>
<path d="M0 0 C0.33 0 0.66 0 1 0 C1 2.97 1 5.94 1 9 C3.31 8.34 5.62 7.68 8 7 C6.45 13.31 6.45 13.31 4.69 16 C3 17 3 17 0.31 16.69 C-0.45 16.46 -1.21 16.23 -2 16 C-2.24 10.37 -1.39 5.45 0 0 Z " fill="#131313" transform="translate(231,193)"/>
<path d="M0 0 C0.66 0.33 1.32 0.66 2 1 C1.89 3.63 1.76 6.25 1.62 8.88 C1.58 9.99 1.58 9.99 1.53 11.14 C1.23 16.77 1.23 16.77 -1 19 C-4 14.25 -4 14.25 -4 12 C-4.99 11.67 -5.98 11.34 -7 11 C-5.62 8.5 -5.62 8.5 -4 6 C-3.34 6 -2.68 6 -2 6 C-1.86 5.2 -1.71 4.39 -1.56 3.56 C-1 1 -1 1 0 0 Z " fill="#020202" transform="translate(280,186)"/>
<path d="M0 0 C1.25 3.55 0.72 5.76 -0.38 9.31 C-1.34 12.59 -2.2 15.73 -2.62 19.12 C-3 22 -3 22 -4 23 C-5.69 23.07 -7.38 23.08 -9.06 23.06 C-9.98 23.05 -10.9 23.04 -11.85 23.04 C-12.56 23.02 -13.27 23.01 -14 23 C-13.89 21.56 -13.76 20.12 -13.62 18.69 C-13.56 17.89 -13.49 17.09 -13.41 16.26 C-13 14 -13 14 -11 11 C-11.33 14.63 -11.66 18.26 -12 22 C-9.69 22 -7.38 22 -5 22 C-4.67 19.69 -4.34 17.38 -4 15 C-4.66 15 -5.32 15 -6 15 C-6 13.35 -6 11.7 -6 10 C-5.01 9.67 -4.02 9.34 -3 9 C-1.98 6.9 -1.98 6.9 -1.31 4.44 C-1.06 3.61 -0.81 2.78 -0.55 1.93 C-0.37 1.3 -0.19 0.66 0 0 Z " fill="#D35D19" transform="translate(136,196)"/>
<path d="M0 0 C2.38 -0.12 2.38 -0.12 5 0 C7 2 7 2 7.12 5.12 C7.08 6.07 7.04 7.02 7 8 C3.25 9.12 3.25 9.12 1 8 C0.67 8.66 0.34 9.32 0 10 C-0.66 9.34 -1.32 8.68 -2 8 C-1.64 5.17 -0.9 2.71 0 0 Z " fill="#FB8705" transform="translate(136,163)"/>
<path d="M0 0 C1.27 0.12 1.27 0.12 2.56 0.25 C4.56 3.25 4.56 3.25 4.25 5.88 C3.56 8.25 3.56 8.25 2.56 9.25 C0.12 9.5 0.12 9.5 -2.44 9.25 C-4.44 6.25 -4.44 6.25 -4.12 3.62 C-3.17 0.33 -3.17 0.33 0 0 Z " fill="#C77D28" transform="translate(144.4375,58.75)"/>
<path d="M0 0 C3.3 0 6.6 0 10 0 C9.67 2.97 9.34 5.94 9 9 C8.67 9 8.34 9 8 9 C8 6.69 8 4.38 8 2 C5.69 2 3.38 2 1 2 C0.97 2.88 0.95 3.76 0.92 4.67 C0.87 5.83 0.81 6.99 0.75 8.19 C0.7 9.34 0.66 10.48 0.61 11.67 C-0.09 15.48 -1.37 17.21 -4 20 C-3.43 13.04 -1.99 6.69 0 0 Z " fill="#E0811A" transform="translate(100,161)"/>
<path d="M0 0 C0.99 0 1.98 0 3 0 C1.59 8.19 0.29 15.75 -4 23 C-7.12 20.21 -7.54 18.16 -8 14 C-7.01 14.5 -7.01 14.5 -6 15 C-5.38 17.06 -5.38 17.06 -5 19 C-1.83 13.85 -1.65 9.84 -2 4 C-1.34 4 -0.68 4 0 4 C0 2.68 0 1.36 0 0 Z " fill="#D75A19" transform="translate(187,271)"/>
<path d="M0 0 C1.32 0.33 2.64 0.66 4 1 C4 3.31 4 5.62 4 8 C1.69 8.33 -0.62 8.66 -3 9 C-5.15 5.77 -5.2 4.72 -5 1 C-2.53 1.5 -2.53 1.5 0 2 C0 1.34 0 0.68 0 0 Z " fill="#060606" transform="translate(74,234)"/>
<path d="M0 0 C1.65 0 3.3 0 5 0 C-4.54 8.05 -19.32 6.33 -31 6 C-31 5.67 -31 5.34 -31 5 C-29.95 4.96 -28.9 4.93 -27.82 4.89 C-20.74 4.57 -14.49 4.21 -7.84 1.57 C-5.05 0.71 -2.75 1.22 0 2 C0 1.34 0 0.68 0 0 Z " fill="#3C1407" transform="translate(205,259)"/>
<path d="M0 0 C0.66 0.33 1.32 0.66 2 1 C0.71 3.32 -0.58 5.63 -1.88 7.94 C-2.24 8.6 -2.6 9.26 -2.98 9.94 C-5.77 14.89 -5.77 14.89 -8 16 C-8.51 10.67 -7.27 8.17 -4 4 C-2.7 2.63 -1.38 1.28 0 0 Z " fill="#E49A25" transform="translate(239,154)"/>
<path d="M0 0 C3.63 0 7.26 0 11 0 C10.01 4.95 9.02 9.9 8 15 C7.67 15 7.34 15 7 15 C6.86 6.43 6.86 6.43 8 3 C5.69 2.67 3.38 2.34 1 2 C1 3.98 1 5.96 1 8 C0.34 8 -0.32 8 -1 8 C-0.67 5.36 -0.34 2.72 0 0 Z " fill="#D26C19" transform="translate(130,180)"/>
<path d="M0 0 C2.97 0 5.94 0 9 0 C8.34 1.32 7.68 2.64 7 4 C4.4 4.61 4.4 4.61 1.38 4.75 C0.37 4.81 -0.63 4.86 -1.66 4.92 C-2.43 4.95 -3.21 4.97 -4 5 C-3.67 3.68 -3.34 2.36 -3 1 C-2.01 1.33 -1.02 1.66 0 2 C0 1.34 0 0.68 0 0 Z " fill="#F95C03" transform="translate(169,90)"/>
<path d="M0 0 C3 1 3 1 4 3 C4.13 5.67 4.04 8.32 4 11 C-0.75 12.12 -0.75 12.12 -3 11 C-3 9.35 -3 7.7 -3 6 C-2.34 6 -1.68 6 -1 6 C-1 6.66 -1 7.32 -1 8 C0.32 8 1.64 8 3 8 C3 7.01 3 6.02 3 5 C2.01 5.33 1.02 5.66 0 6 C0 4.02 0 2.04 0 0 Z " fill="#FB5F02" transform="translate(182,76)"/>
<path d="M0 0 C0.33 0.66 0.66 1.32 1 2 C0.06 4.12 0.06 4.12 -1 6 C-0.34 6.33 0.32 6.66 1 7 C-1.64 9.97 -4.28 12.94 -7 16 C-7.33 15.34 -7.66 14.68 -8 14 C-7.11 11.76 -7.11 11.76 -5.75 9.12 C-5.31 8.26 -4.87 7.4 -4.42 6.51 C-3.1 4.17 -1.66 2.1 0 0 Z " fill="#D89627" transform="translate(142,138)"/>
<path d="M0 0 C5.28 0 10.56 0 16 0 C16.98 4.92 17.03 5.81 15 10 C9.25 9.25 9.25 9.25 7 7 C9.64 7 12.28 7 15 7 C15 5.02 15 3.04 15 1 C10.05 1 5.1 1 0 1 C0 0.67 0 0.34 0 0 Z " fill="#B35419" transform="translate(80,137)"/>
<path d="M0 0 C-0.33 1.65 -0.66 3.3 -1 5 C-1.33 3.68 -1.66 2.36 -2 1 C-2.76 1.33 -3.53 1.66 -4.31 2 C-7 3 -7 3 -10 3 C-10 3.66 -10 4.32 -10 5 C-10.66 5 -11.32 5 -12 5 C-11.81 6.95 -11.81 6.95 -11 9 C-9.02 10.28 -9.02 10.28 -7 11 C-9.38 11.12 -9.38 11.12 -12 11 C-12.66 10.34 -13.32 9.68 -14 9 C-13.91 5.6 -13.21 4.24 -10.94 1.69 C-6.98 -0.59 -4.51 -0.31 0 0 Z " fill="#D16420" transform="translate(106,239)"/>
<path d="M0 0 C3.3 0 6.6 0 10 0 C9.2 10.18 9.2 10.18 7 14 C6.8 12.01 6.61 10.03 6.41 8.04 C6.07 5.7 6.07 5.7 4 3 C4.33 2.67 4.66 2.34 5 2 C3.35 1.67 1.7 1.34 0 1 C0 0.67 0 0.34 0 0 Z " fill="#E3E3E3" transform="translate(243,180)"/>
<path d="M0 0 C5.54 0.62 5.54 0.62 7.88 2.56 C8.43 3.27 8.43 3.27 9 4 C7.35 3.67 5.7 3.34 4 3 C4.78 3.78 5.57 4.57 6.38 5.38 C7.92 6.92 9.46 8.46 11 10 C7.06 9.73 5.25 9.2 2.12 6.69 C0 4 0 4 0 0 Z " fill="#AD7837" transform="translate(217,137)"/>
<path d="M0 0 C0.33 1.65 0.66 3.3 1 5 C0.44 4.87 -0.11 4.73 -0.69 4.6 C-5.79 3.42 -10.8 2.57 -16 2 C-16 1.67 -16 1.34 -16 1 C-14.27 0.63 -12.54 0.28 -10.81 -0.06 C-9.37 -0.36 -9.37 -0.36 -7.89 -0.66 C-4.96 -1 -2.84 -0.74 0 0 Z " fill="#1E1E1E" transform="translate(211,88)"/>
<path d="M0 0 C0.66 0 1.32 0 2 0 C1.34 3.63 0.68 7.26 0 11 C-3.63 11 -7.26 11 -11 11 C-10.67 9.35 -10.34 7.7 -10 6 C-9.67 6.99 -9.34 7.98 -9 9 C-6.36 9 -3.72 9 -1 9 C-0.67 6.03 -0.34 3.06 0 0 Z " fill="#C5551E" transform="translate(98,208)"/>
<path d="M0 0 C1.48 0.99 1.48 0.99 3 2 C3 2.99 3 3.98 3 5 C5.64 4.67 8.28 4.34 11 4 C11.33 2.68 11.66 1.36 12 0 C12.66 2.31 13.32 4.62 14 7 C10.04 7 6.08 7 2 7 C1.34 4.69 0.68 2.38 0 0 Z " fill="#C4551D" transform="translate(106,212)"/>
<path d="M0 0 C0.33 0.66 0.66 1.32 1 2 C3.02 2.65 3.02 2.65 5 3 C4.34 3.66 3.68 4.32 3 5 C2.83 8.08 2.83 8.08 3 11 C6.15 11.26 7.62 11.25 10.31 9.5 C10.87 9 11.43 8.51 12 8 C10.12 11.88 10.12 11.88 9 13 C2.47 13.24 2.47 13.24 0 12 C0 8 0 4 0 0 Z " fill="#250C03" transform="translate(83,252)"/>
<path d="M0 0 C2.73 0.03 5.3 0.56 8 1 C8 1.66 8 2.32 8 3 C8.66 3 9.32 3 10 3 C10 3.66 10 4.32 10 5 C10.99 5.33 11.98 5.66 13 6 C7.34 5.5 3.12 4.45 -2 2 C-1.34 1.34 -0.68 0.68 0 0 Z " fill="#260B08" transform="translate(153,257)"/>
<path d="M0 0 C2.94 1.19 2.94 1.19 6 3 C6.88 5.69 6.88 5.69 7 8 C5.35 8 3.7 8 2 8 C1.01 5.69 0.02 3.38 -1 1 C-0.67 0.67 -0.34 0.34 0 0 Z " fill="#3B362C" transform="translate(216,285)"/>
<path d="M0 0 C2.31 0 4.62 0 7 0 C7.33 1.32 7.66 2.64 8 4 C5.69 4.66 3.38 5.32 1 6 C0.67 4.02 0.34 2.04 0 0 Z " fill="#19140F" transform="translate(275,99)"/>
<path d="M0 0 C-0.66 1.65 -1.32 3.3 -2 5 C-4 5 -4 5 -5.62 3.5 C-6.08 3 -6.53 2.51 -7 2 C-7 2.66 -7 3.32 -7 4 C-9.64 4.33 -12.28 4.66 -15 5 C-12.92 2.92 -11.28 2.03 -8.62 0.81 C-7.85 0.45 -7.08 0.08 -6.29 -0.29 C-3.73 -1.08 -2.49 -0.89 0 0 Z " fill="#230905" transform="translate(227,261)"/>
<path d="M0 0 C2.31 0 4.62 0 7 0 C8.12 2.31 8.12 2.31 9 5 C8.01 6.49 8.01 6.49 7 8 C5.68 8 4.36 8 3 8 C3.66 5.69 4.32 3.38 5 1 C3.35 1 1.7 1 0 1 C0 0.67 0 0.34 0 0 Z " fill="#250C06" transform="translate(101,238)"/>
<path d="M0 0 C2.62 1 3.95 1.94 5.75 4.12 C7.43 7.98 7.21 10.82 7 15 C6.67 15 6.34 15 6 15 C5.67 12.03 5.34 9.06 5 6 C3.68 6.33 2.36 6.66 1 7 C0.67 4.69 0.34 2.38 0 0 Z " fill="#D56919" transform="translate(80,188)"/>
<path d="M0 0 C0.78 0.04 1.57 0.08 2.38 0.12 C2.38 1.12 2.38 2.11 2.38 3.12 C0.39 3.12 -1.58 3.12 -3.62 3.12 C-2.97 4.77 -2.31 6.43 -1.62 8.12 C-2.94 7.8 -4.27 7.46 -5.62 7.12 C-4.53 0.22 -4.53 0.22 0 0 Z " fill="#FA6A03" transform="translate(91.625,254.875)"/>
<path d="M0 0 C2.93 0.63 5.36 1.59 8 3 C6.35 3 4.7 3 3 3 C3 3.66 3 4.32 3 5 C4.32 5.33 5.64 5.66 7 6 C6.67 7.65 6.34 9.3 6 11 C5.66 10.04 5.66 10.04 5.31 9.06 C4.15 6.73 4.15 6.73 1.38 6.25 C0.59 6.17 -0.19 6.09 -1 6 C-1 5.34 -1 4.68 -1 4 C-0.01 4 0.98 4 2 4 C2 3.34 2 2.68 2 2 C1.34 2 0.68 2 0 2 C0 1.34 0 0.68 0 0 Z " fill="#250B04" transform="translate(90,248)"/>
<path d="M0 0 C0.33 0 0.66 0 1 0 C1.66 2.64 2.32 5.28 3 8 C2.01 8 1.02 8 0 8 C0 10.64 0 13.28 0 16 C-0.99 16.33 -1.98 16.66 -3 17 C-2.37 11.22 -1.35 5.66 0 0 Z " fill="#33180A" transform="translate(161,161)"/>
<path d="M0 0 C1.65 0.33 3.3 0.66 5 1 C4.67 2.65 4.34 4.3 4 6 C2.35 5.67 0.7 5.34 -1 5 C-0.67 3.35 -0.34 1.7 0 0 Z " fill="#DC6C1D" transform="translate(69,124)"/>
<path d="M0 0 C0.66 0.33 1.32 0.66 2 1 C0.68 1.33 -0.64 1.66 -2 2 C-2 2.99 -2 3.98 -2 5 C-0.35 5.33 1.3 5.66 3 6 C0.61 7.89 -1.07 9.02 -4 10 C-4 9.34 -4 8.68 -4 8 C-3.34 8 -2.68 8 -2 8 C-3.26 5.49 -4.5 5.13 -7 4 C-4.61 2.11 -2.93 0.98 0 0 Z " fill="#D85E18" transform="translate(149,94)"/>
<path d="M0 0 C0.99 0 1.98 0 3 0 C2.52 4.22 1.83 6.8 -1 10 C-1 8.35 -1 6.7 -1 5 C-1.66 5 -2.32 5 -3 5 C-1.12 1.12 -1.12 1.12 0 0 Z " fill="#D66B22" transform="translate(246,69)"/>
<path d="M0 0 C1.56 1.19 1.56 1.19 3 3 C2.69 5.69 2.69 5.69 2 8 C1.67 7.34 1.34 6.68 1 6 C-0.98 6.66 -2.96 7.32 -5 8 C-4.34 6.02 -3.68 4.04 -3 2 C-2.01 2 -1.02 2 0 2 C0 1.34 0 0.68 0 0 Z " fill="#151515" transform="translate(221,179)"/>
<path d="M0 0 C0.66 0.66 1.32 1.32 2 2 C2.99 2 3.98 2 5 2 C4.34 4.64 3.68 7.28 3 10 C4.65 10 6.3 10 8 10 C8 10.33 8 10.66 8 11 C6.02 11 4.04 11 2 11 C2 9.68 2 8.36 2 7 C1.34 7 0.68 7 0 7 C-0.93 3.99 -1.04 3.13 0 0 Z " fill="#32110A" transform="translate(96,142)"/>
<path d="M0 0 C0.33 0 0.66 0 1 0 C3 5.62 3 5.62 3 9 C2.01 9.66 1.02 10.32 0 11 C-0.66 10.01 -1.32 9.02 -2 8 C-2.66 7.67 -3.32 7.34 -4 7 C-3.53 6.59 -3.05 6.17 -2.56 5.75 C-0.84 3.82 -0.43 2.52 0 0 Z " fill="#2A1709" transform="translate(170,105)"/>
<path d="M0 0 C2.47 0.99 2.47 0.99 5 2 C5 2.66 5 3.32 5 4 C5.99 4 6.98 4 8 4 C8.66 5.32 9.32 6.64 10 8 C6.21 6.55 2.61 4.85 -1 3 C-0.67 2.01 -0.34 1.02 0 0 Z " fill="#D8601C" transform="translate(222,87)"/>
<path d="M0 0 C1.65 0 3.3 0 5 0 C5 1.98 5 3.96 5 6 C3.35 5.67 1.7 5.34 0 5 C0 3.35 0 1.7 0 0 Z " fill="#FA8805" transform="translate(142,61)"/>
<path d="M0 0 C2.34 0.29 4.67 0.62 7 1 C7 1.33 7 1.66 7 2 C5.02 2 3.04 2 1 2 C1.5 2.62 1.99 3.24 2.5 3.88 C4 6 4 6 4 8 C2.06 7.31 2.06 7.31 0 6 C-0.81 3.44 -0.81 3.44 -1 1 C-0.67 0.67 -0.34 0.34 0 0 Z " fill="#191919" transform="translate(267,188)"/>
<path d="M0 0 C3.26 0.35 4.02 1.02 6.25 3.56 C6.83 4.37 7.41 5.17 8 6 C7.01 6 6.02 6 5 6 C4.34 5.01 3.68 4.02 3 3 C3 4.65 3 6.3 3 8 C0.38 4.94 0 4.27 0 0 Z " fill="#C35E22" transform="translate(128,84)"/>
<path d="M0 0 C1.21 0.03 1.21 0.03 2.44 0.06 C2.77 1.71 3.1 3.36 3.44 5.06 C1.44 5.06 -0.56 5.06 -2.56 5.06 C-3.12 3.12 -3.12 3.12 -3.56 1.06 C-2.56 0.06 -2.56 0.06 0 0 Z " fill="#303030" transform="translate(147.5625,283.9375)"/>
<path d="M0 0 C1.98 0.66 3.96 1.32 6 2 C6 3.32 6 4.64 6 6 C5.01 6 4.02 6 3 6 C2.67 6.66 2.34 7.32 2 8 C-0.15 4.77 -0.2 3.72 0 0 Z " fill="#6D6D6D" transform="translate(69,235)"/>
<path d="M0 0 C0.33 0 0.66 0 1 0 C1.09 3.2 0.91 5.93 0 9 C-2.31 9.62 -2.31 9.62 -5 10 C-5.99 9.34 -6.98 8.68 -8 8 C-6.58 7.41 -6.58 7.41 -5.12 6.81 C-1.66 4.8 -1.02 3.77 0 0 Z " fill="#2E1308" transform="translate(280,119)"/>
<path d="M0 0 C0.66 0 1.32 0 2 0 C1.67 3.3 1.34 6.6 1 10 C-0.32 10 -1.64 10 -3 10 C-3 9.34 -3 8.68 -3 8 C-2.34 8 -1.68 8 -1 8 C-0.67 5.36 -0.34 2.72 0 0 Z " fill="#FC5802" transform="translate(103,141)"/>
<path d="M0 0 C2.31 2.31 2.5 3.48 3.12 6.62 C3.29 7.44 3.46 8.26 3.63 9.1 C3.81 10.04 3.81 10.04 4 11 C3.01 11.33 2.02 11.66 1 12 C0.67 8.04 0.34 4.08 0 0 Z " fill="#BD5A1C" transform="translate(185,75)"/>
<path d="M0 0 C0.33 0.66 0.66 1.32 1 2 C1.99 2.33 2.98 2.66 4 3 C3.67 3.66 3.34 4.32 3 5 C0.03 4.01 -2.94 3.02 -6 2 C-6 1.67 -6 1.34 -6 1 C-4.02 0.67 -2.04 0.34 0 0 Z " fill="#DADADA" transform="translate(214,124)"/>
<path d="M0 0 C7.43 0.99 7.43 0.99 15 2 C15 2.33 15 2.66 15 3 C12.88 3.03 10.75 3.05 8.62 3.06 C7.44 3.07 6.26 3.09 5.04 3.1 C2 3 2 3 0 2 C0 1.34 0 0.68 0 0 Z " fill="#262527" transform="translate(250,217)"/>
<path d="M0 0 C2.58 4.38 1.81 7.11 1 12 C-1.24 8.65 -1.17 8.09 -0.62 4.31 C-0.51 3.5 -0.4 2.7 -0.29 1.86 C-0.19 1.25 -0.1 0.63 0 0 Z " fill="#DBDBDB" transform="translate(184,178)"/>
<path d="M0 0 C0.33 0.66 0.66 1.32 1 2 C1.99 2 2.98 2 4 2 C4 2.99 4 3.98 4 5 C3.01 5 2.02 5 1 5 C1 5.99 1 6.98 1 8 C0.34 8 -0.32 8 -1 8 C-0.67 5.36 -0.34 2.72 0 0 Z " fill="#1A1A1A" transform="translate(253,180)"/>
<path d="M0 0 C3.31 -0.19 3.31 -0.19 7 0 C7.99 0.99 8.98 1.98 10 3 C6.37 2.67 2.74 2.34 -1 2 C-0.67 1.34 -0.34 0.68 0 0 Z " fill="#CDCDCD" transform="translate(301,179)"/>
<path d="M0 0 C0.7 0.01 1.4 0.01 2.12 0.02 C2.83 0.01 3.53 0.01 4.25 0 C6.12 0.27 6.12 0.27 8.12 2.27 C4.04 3.8 0.33 2.9 -3.88 2.27 C-1.88 0.27 -1.88 0.27 0 0 Z " fill="#C8C8C8" transform="translate(267.875,178.734375)"/>
<path d="M0 0 C2.97 0.99 5.94 1.98 9 3 C9 3.66 9 4.32 9 5 C5.37 4.01 1.74 3.02 -2 2 C-1.34 1.34 -0.68 0.68 0 0 Z " fill="#E0E0E0" transform="translate(224,129)"/>
<path d="M0 0 C7.62 1.75 7.62 1.75 11 4 C8.36 4 5.72 4 3 4 C3 3.34 3 2.68 3 2 C2.01 2 1.02 2 0 2 C0 1.34 0 0.68 0 0 Z " fill="#1A1A1A" transform="translate(201,124)"/>
<path d="M0 0 C0 0.66 0 1.32 0 2 C2.48 2.99 2.48 2.99 5 4 C4.34 4.66 3.68 5.32 3 6 C2.28 5.53 1.56 5.05 0.81 4.56 C-1.89 3.06 -3.96 2.43 -7 2 C-7 1.67 -7 1.34 -7 1 C-2.25 0 -2.25 0 0 0 Z " fill="#301509" transform="translate(266,237)"/>
<path d="M0 0 C2.47 1.15 4.05 2.05 6 4 C1.54 4.5 1.54 4.5 -3 5 C-2.01 3.35 -1.02 1.7 0 0 Z " fill="#E5E5E5" transform="translate(254,207)"/>
<path d="M0 0 C1.54 2.41 2.1 3.5 1.54 6.36 C1.24 7.15 0.94 7.94 0.62 8.75 C0.33 9.55 0.03 10.35 -0.27 11.17 C-0.51 11.78 -0.75 12.38 -1 13 C-2.07 9.73 -1.89 7.57 -1.06 4.25 C-0.87 3.45 -0.67 2.65 -0.47 1.83 C-0.32 1.22 -0.16 0.62 0 0 Z " fill="#2B1207" transform="translate(110,161)"/>
<path d="M0 0 C0.66 0.33 1.32 0.66 2 1 C1.01 2.98 0.02 4.96 -1 7 C-1.99 7 -2.98 7 -4 7 C-2.93 4.08 -2.22 2.22 0 0 Z " fill="#E3E3E3" transform="translate(187,93)"/>
<path d="M0 0 C0.66 0 1.32 0 2 0 C2.33 1.65 2.66 3.3 3 5 C1.35 5 -0.3 5 -2 5 C-2 4.01 -2 3.02 -2 2 C-1.34 2 -0.68 2 0 2 C0 1.34 0 0.68 0 0 Z " fill="#151515" transform="translate(235,215)"/>
<path d="M0 0 C0.66 0 1.32 0 2 0 C1.39 3.56 0.42 6.68 -1 10 C-2.32 9.34 -3.64 8.68 -5 8 C-4.18 7.24 -3.35 6.47 -2.5 5.69 C0.34 3.25 0.34 3.25 0 0 Z " fill="#2A2A2A" transform="translate(279,182)"/>
<path d="M0 0 C2.47 0.5 2.47 0.5 5 1 C5.33 2.32 5.66 3.64 6 5 C3.56 4.19 3.56 4.19 1 3 C0.67 2.01 0.34 1.02 0 0 Z " fill="#1A0C06" transform="translate(221,140)"/>
<path d="M0 0 C2.47 0.5 2.47 0.5 5 1 C5 1.99 5 2.98 5 4 C5.99 4.33 6.98 4.66 8 5 C7.34 5.66 6.68 6.32 6 7 C4.02 4.69 2.04 2.38 0 0 Z " fill="#D9591B" transform="translate(117,241)"/>
<path d="M0 0 C2.31 0 4.62 0 7 0 C6.01 1.98 5.02 3.96 4 6 C3.71 5.38 3.42 4.76 3.12 4.12 C2.06 1.87 2.06 1.87 0 0 Z " fill="#D15B24" transform="translate(250,228)"/>
<path d="M0 0 C3.8 0.54 5.47 2.2 8 5 C3.55 4.01 3.55 4.01 -1 3 C-0.67 2.01 -0.34 1.02 0 0 Z " fill="#D7641C" transform="translate(57,204)"/>
<path d="M0 0 C1.32 0 2.64 0 4 0 C6 3 6 3 5.62 5.19 C5.42 5.79 5.21 6.38 5 7 C4.34 5.68 3.68 4.36 3 3 C2.01 3.33 1.02 3.66 0 4 C0 2.68 0 1.36 0 0 Z " fill="#D16219" transform="translate(100,202)"/>
<path d="M0 0 C0.98 3.05 0.98 4.95 0 8 C-1.65 7.67 -3.3 7.34 -5 7 C-4.36 6.22 -3.72 5.43 -3.06 4.62 C-1.02 2.2 -1.02 2.2 0 0 Z " fill="#E5E5E5" transform="translate(207,180)"/>
<path d="M0 0 C1.98 0.66 3.96 1.32 6 2 C6 2.99 6 3.98 6 5 C4.12 4.75 4.12 4.75 2 4 C0.75 1.94 0.75 1.94 0 0 Z " fill="#E3E3E3" transform="translate(219,214)"/>
<path d="M0 0 C2.59 2.59 2.7 4.4 3 8 C2.34 8.66 1.68 9.32 1 10 C-0.61 6.79 -0.06 3.56 0 0 Z " fill="#131313" transform="translate(198,208)"/>
<path d="M0 0 C0.99 0 1.98 0 3 0 C3.33 1.98 3.66 3.96 4 6 C3.01 6.5 3.01 6.5 2 7 C1.34 4.69 0.68 2.38 0 0 Z " fill="#E2E2E2" transform="translate(207,204)"/>
<path d="M0 0 C2.09 4.18 2.17 4.8 1 9 C0.34 9 -0.32 9 -1 9 C-0.67 6.03 -0.34 3.06 0 0 Z " fill="#DA6915" transform="translate(128,188)"/>
<path d="M0 0 C1.32 0.33 2.64 0.66 4 1 C3.67 2.32 3.34 3.64 3 5 C2.01 4.67 1.02 4.34 0 4 C0 2.68 0 1.36 0 0 Z " fill="#E3CE8A" transform="translate(279,99)"/>
</svg>
